<svg width="32" height="32" viewBox="0 0 32 32" fill="none" xmlns="http://www.w3.org/2000/svg">
<g clip-path="url(#clip0_3_78)">
<rect width="32" height="32" rx="8" fill="#22C55E"/>
<path d="M16.67 23.33C15.17 23.33 13.81 23 12.59 22.34C11.37 21.68 10.41 20.77 9.71 19.61C9.01 18.45 8.66 17.15 8.66 15.71C8.66 14.25 9.01 12.95 9.71 11.81C10.43 10.65 11.4 9.74 12.62 9.08C13.84 8.42 15.21 8.09 16.73 8.09C17.87 8.09 18.91 8.29 19.85 8.69C20.81 9.07 21.66 9.65 22.4 10.43L19.46 13.37C19.12 12.99 18.72 12.71 18.26 12.53C17.82 12.35 17.31 12.26 16.73 12.26C16.07 12.26 15.48 12.41 14.96 12.71C14.46 12.99 14.06 13.39 13.76 13.91C13.48 14.41 13.34 15 13.34 15.68C13.34 16.36 13.48 16.96 13.76 17.48C14.06 18 14.47 18.41 14.99 18.71C15.51 19.01 16.09 19.16 16.73 19.16C17.33 19.16 17.86 19.06 18.32 18.86C18.8 18.64 19.21 18.34 19.55 17.96L22.46 20.9C21.7 21.7 20.84 22.31 19.88 22.73C18.92 23.13 17.85 23.33 16.67 23.33Z" fill="white"/>
</g>
<defs>
<clipPath id="clip0_3_78">
<rect width="32" height="32" fill="white"/>
</clipPath>
</defs>
</svg>
