<svg width="171" height="121" viewBox="0 0 171 121" fill="none" xmlns="http://www.w3.org/2000/svg">
<path d="M132.475 96V45.312C132.475 41.536 133.307 38.144 134.971 35.136C136.699 32.064 139.099 29.664 142.171 27.936C145.243 26.144 148.891 25.248 153.115 25.248C156.315 25.248 159.099 25.792 161.467 26.88C163.899 27.904 166.011 29.344 167.803 31.2L158.587 40.416C157.947 39.776 157.211 39.296 156.379 38.976C155.611 38.592 154.683 38.4 153.595 38.4C151.611 38.4 150.043 38.976 148.891 40.128C147.739 41.28 147.163 42.848 147.163 44.832V96H132.475ZM122.203 61.824V49.344H160.603V61.824H122.203Z" fill="#22C55E"/>
<path d="M98.9603 97.056C93.9043 97.056 89.3923 96.032 85.4243 93.984C81.5203 91.872 78.4483 88.96 76.2083 85.248C73.9683 81.536 72.8483 77.344 72.8483 72.672C72.8483 68 73.9363 63.84 76.1123 60.192C78.3523 56.48 81.3603 53.568 85.1363 51.456C88.9123 49.344 93.1683 48.288 97.9043 48.288C102.512 48.288 106.576 49.28 110.096 51.264C113.616 53.248 116.368 56 118.352 59.52C120.4 63.04 121.424 67.072 121.424 71.616C121.424 72.448 121.36 73.344 121.232 74.304C121.168 75.2 121.008 76.256 120.752 77.472L80.5283 77.568V67.488L114.512 67.392L108.176 71.616C108.112 68.928 107.696 66.72 106.928 64.992C106.16 63.2 105.008 61.856 103.472 60.96C102 60 100.176 59.52 98.0003 59.52C95.6963 59.52 93.6803 60.064 91.9523 61.152C90.2883 62.176 88.9763 63.648 88.0163 65.568C87.1203 67.488 86.6723 69.824 86.6723 72.576C86.6723 75.328 87.1523 77.696 88.1123 79.68C89.1363 81.6 90.5443 83.104 92.3363 84.192C94.1923 85.216 96.3683 85.728 98.8643 85.728C101.168 85.728 103.248 85.344 105.104 84.576C106.96 83.744 108.592 82.528 110 80.928L118.064 88.992C115.76 91.68 112.976 93.696 109.712 95.04C106.448 96.384 102.864 97.056 98.9603 97.056Z" fill="#22C55E"/>
<path d="M51.849 96V26.304H66.537V96H51.849Z" fill="#22C55E"/>
<path d="M27.744 97.056C22.944 97.056 18.592 96 14.688 93.888C10.784 91.776 7.712 88.864 5.472 85.152C3.232 81.44 2.112 77.28 2.112 72.672C2.112 68 3.232 63.84 5.472 60.192C7.776 56.48 10.88 53.568 14.784 51.456C18.688 49.344 23.072 48.288 27.936 48.288C31.584 48.288 34.912 48.928 37.92 50.208C40.992 51.424 43.712 53.28 46.08 55.776L36.672 65.184C35.584 63.968 34.304 63.072 32.832 62.496C31.424 61.92 29.792 61.632 27.936 61.632C25.824 61.632 23.936 62.112 22.272 63.072C20.672 63.968 19.392 65.248 18.432 66.912C17.536 68.512 17.088 70.4 17.088 72.576C17.088 74.752 17.536 76.672 18.432 78.336C19.392 80 20.704 81.312 22.368 82.272C24.032 83.232 25.888 83.712 27.936 83.712C29.856 83.712 31.552 83.392 33.024 82.752C34.56 82.048 35.872 81.088 36.96 79.872L46.272 89.28C43.84 91.84 41.088 93.792 38.016 95.136C34.944 96.416 31.52 97.056 27.744 97.056Z" fill="#22C55E"/>
</svg>
